<?xml version="1.0" encoding="iso-8859-1"?>
<!-- Generator: Adobe Illustrator 19.0.0, SVG Export Plug-In . SVG Version: 6.00 Build 0)  -->
<svg version="1.1" id="Capa_1" xmlns="http://www.w3.org/2000/svg" xmlns:xlink="http://www.w3.org/1999/xlink" x="0px" y="0px"
	 viewBox="0 0 512 512" style="enable-background:new 0 0 512 512;" xml:space="preserve">
<path style="fill:#E22342;" d="M32.95,486.314V51.033H479.05v435.281h25.347V47.008c0-11.781-9.551-21.322-21.322-21.322H28.925
	c-11.781,0-21.322,9.54-21.322,21.322v439.306L32.95,486.314L32.95,486.314z"/>
<path d="M512,149.309V47.008c0-15.975-12.95-28.925-28.925-28.925H28.925C12.95,18.082,0,31.032,0,47.008v439.306
	c0,4.199,3.405,7.604,7.604,7.604H32.95c1.706,0,3.277-0.569,4.545-1.519l0.005,0.007l38.693-28.904h359.613l38.693,28.904
	l0.005-0.007c1.269,0.95,2.839,1.519,4.545,1.519h25.347c4.199,0,7.604-3.405,7.604-7.604V184.797c0-4.199-3.405-7.604-7.604-7.604
	l0,0c-4.199,0-7.604,3.405-7.604,7.604v293.914h-10.139V51.033c0-4.199-3.405-7.604-7.604-7.604H32.951
	c-4.199,0-7.604,3.405-7.604,7.604V478.71H15.208V47.008c0-7.576,6.142-13.718,13.718-13.718h454.149
	c7.577,0,13.718,6.142,13.718,13.718v102.302c0,4.199,3.405,7.604,7.604,7.604l0,0C508.595,156.913,512,153.509,512,149.309z
	 M41.044,58.637l25.019,16.378v49.929l-25.509-9.985V58.637H41.044z M110.129,93.617c10.271,0,20.139-2.609,28.862-7.496v46.657
	c-8.003,6.988-18.136,10.812-28.862,10.812c-10.724,0-20.855-3.824-28.858-10.809V86.114
	C89.992,91.002,99.857,93.617,110.129,93.617z M211.927,86.093v46.679c-16.495,14.38-41.234,14.38-57.729,0V86.093
	C172.073,96.07,194.054,96.07,211.927,86.093z M284.865,86.091v46.678c-16.493,14.382-41.234,14.384-57.729,0.005v-46.68
	C245.01,96.073,266.991,96.07,284.865,86.091z M40.554,271.284l25.509,2.153v51.095l-25.509,1.759V271.284z M471.446,326.291
	l-25.509-1.759v-51.095l25.509-2.153V326.291z M138.99,324.202v4.114c-8.003,6.988-18.136,10.812-28.862,10.812
	c-10.724,0-20.855-3.823-28.858-10.809v-46.665c8.721,4.888,18.586,7.503,28.858,7.503s20.139-2.609,28.862-7.497v7.055
	c0,4.199,3.405,7.604,7.604,7.604l0,0c4.199,0,7.604-3.405,7.604-7.604v-7.083c17.874,9.978,39.856,9.978,57.729,0v46.679
	c-16.495,14.379-41.234,14.38-57.729,0v-4.11c0-4.199-3.405-7.604-7.604-7.604l0,0C142.395,316.599,138.99,320.002,138.99,324.202z
	 M357.792,263.137c-8.003,6.987-18.136,10.812-28.862,10.812c-10.724,0-20.855-3.823-28.858-10.809v-46.683
	c17.871,9.973,39.848,9.973,57.719-0.002L357.792,263.137L357.792,263.137z M284.865,263.131
	c-8.004,6.991-18.14,10.818-28.868,10.818c-10.726,0-20.857-3.824-28.862-10.812v-46.682c17.874,9.977,39.856,9.976,57.729-0.004
	V263.131z M211.927,263.134c-8.004,6.989-18.138,10.815-28.865,10.815s-20.86-3.825-28.865-10.815v-46.682
	c17.874,9.978,39.856,9.978,57.729,0V263.134z M227.135,281.634c17.874,9.977,39.856,9.976,57.729-0.004v46.68
	c-8.004,6.991-18.14,10.818-28.868,10.818c-10.726,0-20.857-3.824-28.862-10.812L227.135,281.634L227.135,281.634z M300.073,281.637
	c17.871,9.973,39.848,9.973,57.719-0.002v46.68c-16.492,14.375-41.226,14.375-57.719,0.002V281.637z M373,281.658
	c8.722,4.889,18.591,7.499,28.865,7.499c10.274,0,20.141-2.616,28.865-7.506v46.663c-8.004,6.989-18.138,10.815-28.865,10.815
	s-20.86-3.826-28.865-10.815V281.658z M430.729,263.134c-8.004,6.989-18.138,10.815-28.865,10.815s-20.86-3.826-28.865-10.815
	v-46.656c8.722,4.889,18.591,7.499,28.865,7.499c10.274,0,20.141-2.616,28.865-7.506V263.134z M357.792,197.956
	c-8.003,6.987-18.136,10.812-28.862,10.812c-10.724,0-20.855-3.823-28.858-10.809v-46.683c17.871,9.973,39.848,9.973,57.719-0.002
	L357.792,197.956L357.792,197.956z M284.865,197.95c-8.004,6.991-18.14,10.818-28.868,10.818c-10.726,0-20.857-3.824-28.862-10.812
	v-46.682c17.874,9.977,39.856,9.976,57.729-0.004V197.95z M211.927,197.953c-8.004,6.989-18.138,10.815-28.865,10.815
	s-20.86-3.825-28.865-10.815v-46.681c17.874,9.978,39.856,9.978,57.729,0V197.953z M138.99,263.137
	c-8.003,6.988-18.136,10.812-28.862,10.812c-10.724,0-20.855-3.823-28.858-10.809v-46.666c8.721,4.888,18.586,7.503,28.858,7.503
	s20.139-2.609,28.862-7.496V263.137z M81.271,346.834c8.721,4.888,18.586,7.503,28.858,7.503s20.139-2.609,28.862-7.496v46.657
	c-8.003,6.988-18.136,10.812-28.862,10.812c-10.724,0-20.855-3.823-28.858-10.809V346.834z M154.198,346.813
	c17.874,9.978,39.856,9.978,57.729,0v46.679c-16.495,14.379-41.234,14.38-57.729,0V346.813z M227.135,346.815
	c17.874,9.977,39.856,9.976,57.729-0.004v46.68c-8.004,6.991-18.14,10.818-28.868,10.818c-10.726,0-20.857-3.824-28.862-10.812
	L227.135,346.815L227.135,346.815z M300.073,346.816c17.871,9.973,39.848,9.973,57.719-0.002v46.681
	c-16.492,14.375-41.226,14.375-57.719,0.002V346.816z M373,346.838c8.722,4.889,18.591,7.499,28.865,7.499
	c10.274,0,20.141-2.616,28.865-7.506v46.664c-8.004,6.989-18.138,10.815-28.865,10.815s-20.86-3.826-28.865-10.815V346.838z
	 M445.937,339.775l25.509,1.759v54.856l-25.509-5.679V339.775z M471.446,256.021l-25.509,2.153v-50.901l25.509-6.066V256.021z
	 M430.729,197.953c-8.004,6.989-18.138,10.815-28.865,10.815s-20.86-3.826-28.865-10.815v-46.655
	c8.722,4.889,18.591,7.499,28.865,7.499c10.274,0,20.141-2.616,28.865-7.506V197.953z M430.729,132.774
	c-8.004,6.989-18.138,10.815-28.865,10.815s-20.86-3.826-28.865-10.815V86.118c8.722,4.889,18.591,7.499,28.865,7.499
	c10.274,0,20.141-2.616,28.865-7.506V132.774z M357.792,132.775c-16.492,14.376-41.226,14.376-57.719,0.002V86.096
	c17.871,9.974,39.848,9.973,57.719-0.002V132.775z M110.129,158.796c10.271,0,20.139-2.609,28.862-7.496v46.656
	c-8.003,6.988-18.136,10.812-28.862,10.812c-10.724,0-20.855-3.823-28.858-10.809v-46.665
	C89.992,156.182,99.857,158.796,110.129,158.796z M66.063,258.175l-25.509-2.153v-54.813l25.509,6.066V258.175z M40.554,341.534
	l25.509-1.759v50.936l-25.509,5.68V341.534z M81.271,412.014c8.721,4.888,18.586,7.503,28.858,7.503s20.139-2.609,28.862-7.497
	v36.274H81.271V412.014z M154.198,411.993c17.874,9.978,39.856,9.978,57.729,0v36.301h-57.729V411.993z M227.135,411.995
	c17.874,9.977,39.856,9.976,57.729-0.004v36.303h-57.729V411.995z M300.073,411.997c17.871,9.973,39.848,9.973,57.719-0.002v36.299
	h-57.719V411.997z M373,412.018c8.722,4.889,18.591,7.499,28.865,7.499c10.274,0,20.141-2.616,28.865-7.506v36.284H373V412.018z
	 M445.937,406.293l25.509,5.679v59.171l-25.509-19.056V406.293z M471.446,185.576l-25.509,6.066v-50.368l25.509-9.986V185.576z
	 M471.446,114.958l-25.509,9.986V75.391l25.509-14.092V114.958z M434.656,64.248c-0.634,0.35-1.2,0.787-1.698,1.286l-0.003-0.003
	c-8.305,8.305-19.346,12.878-31.09,12.878c-8.882,0-17.359-2.62-24.558-7.487l14.854-12.285h52.654L434.656,64.248z M360.549,65.045
	c-0.136,0.113-0.259,0.236-0.385,0.357c-0.047,0.045-0.097,0.083-0.143,0.13c-15.815,15.815-40.772,17.028-58.005,3.664
	l5.667-10.558h60.615L360.549,65.045z M286.343,66.238c-16.945,16.179-43.73,16.184-60.68,0.012l-4.087-7.614h68.846L286.343,66.238
	z M209.982,69.191c-17.233,13.367-42.193,12.156-58.009-3.66c-0.094-0.094-0.196-0.177-0.294-0.266
	c-0.08-0.073-0.154-0.151-0.238-0.22l-7.749-6.409h60.625L209.982,69.191z M134.684,70.923c-7.197,4.867-15.674,7.486-24.556,7.486
	c-11.744,0-22.786-4.574-31.09-12.878l-0.005,0.005c-0.365-0.365-0.76-0.705-1.201-0.994l-9.021-5.906h51.019L134.684,70.923z
	 M66.063,141.275v50.368l-25.509-6.066v-54.287L66.063,141.275z M40.554,411.971l25.509-5.679v45.794l-25.509,19.056V411.971z"/>
<g>
</g>
<g>
</g>
<g>
</g>
<g>
</g>
<g>
</g>
<g>
</g>
<g>
</g>
<g>
</g>
<g>
</g>
<g>
</g>
<g>
</g>
<g>
</g>
<g>
</g>
<g>
</g>
<g>
</g>
</svg>
